{"title":"Big Ten Basketball Media Day.2014-2015.480p.HDTV.x264_TTL","uid":11231161,"size":1736599518,"categoryP":"video","categoryS":"tv_shows","magnet":"?xt=urn:btih:cf29f3471cc6468c0dd0babc364a0438b3bab1c3&amp;dn=Big+Ten+Basketball+Media+Day.2014-2015.480p.HDTV.x264_TTL&amp;tr=udp%3A%2F%2Ftracker.openbittorrent.com%3A80&amp;tr=udp%3A%2F%2Fopen.demonii.com%3A1337&amp;tr=udp%3A%2F%2Ftracker.coppersurfer.tk%3A6969&amp;tr=udp%3A%2F%2Fexodus.desync.com%3A6969","seeders":1,"leechers":0,"uploader":"thetorrentlord","files":-1,"time":1413535099,"description":"Interviews and commentary about the coming season.   \t\t\t\t\t\t\t\t\t\t\t\t\t\t\t\t\t\t\t\t\t\t\t\t\t\t\t\t\tGrab a sample and check it out. \t\t\t\t\n\n\t\t\t\t\t\t\t\t\n\n\t\t\t\t\t\t\t\t\n\nIf you like it then go for it.\t\t\t\t\t\n\nEnjoy and and please share.\t\t\t\t\t\t\t\t\t\n\n\t\t\t\t\t\t\t\t\t\t\t\t\n\n\t\t\t\t\t\t\t\t\t\t\t\t\n\nTTLTTLTTLTTLTTLTTLTTLTTLTTLTTLTTLTTLTTLTTLTTLTTLTTLTTLTTLTTLTTLTTLTTLTTL\t\t\t\n\n\t\t\t\t\t\t\t\t\t\t\t\t\n\n\t\t\t\t\t\t\t\t\t\t\t\n\nBig Ten Basketball Media Day.2014-2015.480p.HDTV.x264_TTL.mp4\nFormat                           : MPEG-4\nFormat profile                   : Base Media / Version 2\nCodec ID                         : mp42\nFile size                        : 1.60 GiB\nDuration                         : 1h 55mn\nOverall bit rate mode            : Variable\nOverall bit rate                 : 1 978 Kbps\nEncoded date                     : UTC 2014-10-17 02:56:16\nTagged date                      : UTC 2014-10-17 03:07:50\nWriting application              : HandBrake 0.9.5 2011010300\n\nVideo\nID                               : 1\nFormat                           : AVC\nFormat/Info                      : Advanced Video Codec\nFormat profile                   : &lt;a class=&quot;__cf_email__&quot; href=&quot;/cdn-cgi/l/email-protection&quot; data-cfemail=&quot;a1ecc0c8cfe1ed928f91&quot;&gt;[email&amp;#160;protected]&lt;/a&gt;&lt;script cf-hash='f9e31' type=&quot;text/javascript&quot;&gt;\n/* &lt;![CDATA[ */!function(){try{var t=&quot;currentScript&quot;in document?document.currentScript:function(){for(var t=document.getElementsByTagName(&quot;script&quot;),e=t.length;e--;)if(t[e].getAttribute(&quot;cf-hash&quot;))return t[e]}();if(t&amp;&amp;t.previousSibling){var e,r,n,i,c=t.previousSibling,a=c.getAttribute(&quot;data-cfemail&quot;);if(a){for(e=&quot;&quot;,r=parseInt(a.substr(0,2),16),n=2;a.length-n;n+=2)i=parseInt(a.substr(n,2),16)^r,e+=String.fromCharCode(i);e=document.createTextNode(e),c.parentNode.replaceChild(e,c)}}}catch(u){}}();/* ]]&gt; */&lt;/script&gt;\nFormat settings, CABAC           : Yes\nFormat settings, ReFrames        : 4 frames\nCodec ID                         : avc1\nCodec ID/Info                    : Advanced Video Coding\nDuration                         : 1h 55mn\nBit rate mode                    : Variable\nBit rate                         : 1 813 Kbps\nWidth                            : 624 pixels\nHeight                           : 336 pixels\nDisplay aspect ratio             : 1.857\nFrame rate mode                  : Constant\nFrame rate                       : 29.970 fps\nColor space                      : YUV\nChroma subsampling               : 4:2:0\nBit depth                        : 8 bits\nScan type                        : Progressive\nBits/(Pixel*Frame)               : 0.289\nStream size                      : 1.46 GiB (92%)\nWriting library                  : x264 core 112\n\nAudio\nID                               : 2\nFormat                           : AAC\nFormat/Info                      : Advanced Audio Codec\nFormat profile                   : LC\nCodec ID                         : 40\nDuration                         : 1h 55mn\nBit rate mode                    : Variable\nBit rate                         : 160 Kbps\nMaximum bit rate                 : 189 Kbps\nChannel(s)                       : 2 channels\nChannel positions                : Front: L R\nSampling rate                    : 48.0 KHz\nCompression mode                 : Lossy\nStream size                      : 132 MiB (8%)\nEncoded date                     : UTC 2014-10-17 02:56:16\nTagged date                      : UTC 2014-10-17 03:07:50","torrent":{"xt":"urn:btih:cf29f3471cc6468c0dd0babc364a0438b3bab1c3","amp;dn":"Big+Ten+Basketball+Media+Day.2014-2015.480p.HDTV.x264_TTL","amp;tr":["udp%3A%2F%2Ftracker.openbittorrent.com%3A80","udp%3A%2F%2Fopen.demonii.com%3A1337","udp%3A%2F%2Ftracker.coppersurfer.tk%3A6969","udp%3A%2F%2Fexodus.desync.com%3A6969"],"infoHash":"cf29f3471cc6468c0dd0babc364a0438b3bab1c3","infoHashBuffer":{"type":"Buffer","data":[207,41,243,71,28,198,70,140,13,208,186,188,54,74,4,56,179,186,177,195]},"announce":[],"urlList":[]}}